<?xml version="1.0" encoding="utf-8"?>
<!-- Generator: Adobe Illustrator 23.0.3, SVG Export Plug-In . SVG Version: 6.00 Build 0)  -->
<svg version="1.1" id="Layer_1" xmlns="http://www.w3.org/2000/svg" xmlns:xlink="http://www.w3.org/1999/xlink" x="0px" y="0px"
	 viewBox="0 0 146.68 109.27" style="enable-background:new 0 0 146.68 109.27;" xml:space="preserve">
<style type="text/css">
	.st0{fill:#FCB017;stroke:#231F20;stroke-width:2;stroke-miterlimit:10;}
	.st1{fill:#775373;stroke:#231F20;stroke-width:2;stroke-miterlimit:10;}
	.st2{fill:#F37F93;stroke:#231F20;stroke-width:2;stroke-miterlimit:10;}
	.st3{fill:#775373;stroke:#231F20;stroke-width:2;stroke-linejoin:bevel;stroke-miterlimit:10;}
	.st4{fill:#8BD2CF;stroke:#231F20;stroke-width:2;stroke-miterlimit:10;}
</style>
<path class="st0" d="M108.54,90.95V63.92h-15.3c0,0,5.3-10.39-4.31-10.39s-7.26,10.98-7.26,10.98h-10.2v9.14
	c0,0,9.81-0.71,9.81,4.59s-9.81,3.33-9.81,3.33v9.38H108.54z"/>
<path class="st1" d="M45.11,27.84h26.36v14.7c0,0-10.39-2.16-10.39,4.12s10.39,3.92,10.39,3.92V64.5h-8.24c0,0-0.2,12.75-7.26,11.18
	s-5.49-6.47-4.51-10.98l-13.14-0.2V27.84H45.11z"/>
<path class="st2" d="M71.47,90.95H38.33V64.5l13.14,0.2c0,0-3.24,9.71,4.51,10.98s7.26-11.18,7.26-11.18h8.24v9.14
	c0,0,9.81-0.63,9.81,4.59s-9.81,3.33-9.81,3.33v9.39H71.47z"/>
<path class="st3" d="M8.27,0.99c0,0,5.97,17.14,30.13,23.9c14.03,4.68,10.65,9.87,10.65,9.87s-1.3,3.64-18.18-4.93
	c0,0,20.1,18.96-2.03,14.54C5.68,34.5,1,16.58,1,16.58V1h7.27V0.99z"/>
<path class="st2" d="M1,94.71c0,0,30.46-22.55,37.33-20.98v10.45c0,0-2.35,4.65-6.08,6.22c0,0,13.34-7.84,17.16-2.35
	s-31.87,20.22-31.87,20.22H1L1,94.71L1,94.71z"/>
<path class="st4" d="M83.92,18.26l34.95-12.34l12.01,34.02l-14.42,5.09c0,0-0.64-9.84-7.53-8.36c-6.89,1.47-5.82,9.63-3.19,12.77
	l-9.62,3.4l-4.63-13.13c0,0-8.95,5.86-11.11-0.24c-2.15-6.1,8.43-7.34,8.43-7.34L83.92,18.26z"/>
<path class="st4" d="M145.67,59.21c0,0-25.89-12.81-28.86-28.86c-1.01-7.34,12.13,2.98,12.13,2.98l-4.12-12.75
	c0,0,9.74-4.31,20.86,10.59v28.04H145.67z"/>
</svg>
